<svg version="1.0" xmlns="http://www.w3.org/2000/svg" width="800.000000" height="800.000000" viewBox="0 0 800.000000 800.000000" preserveAspectRatio="xMidYMid meet">
  <metadata>
    <rdf:RDF xmlns:rdf="http://www.w3.org/1999/02/22-rdf-syntax-ns#" xmlns:rdfs="http://www.w3.org/2000/01/rdf-schema#" xmlns:dc="http://purl.org/dc/elements/1.1/">
      <rdf:Description dc:format="image/svg+xml" dc:Label="1" dc:ContentProducer="001191330110MACRLGPT8B00000" dc:ProduceID="390978468" dc:ReservedCode1="p51mL3MtE75XOuRYpCwQJd3nYud2Z8XeHjiSXoV+nIw=" dc:ContentPropagator="001191330110MACRLGPT8B00000" dc:PropagateID="390978468" dc:ReservedCode2="p51mL3MtE75XOuRYpCwQJd3nYud2Z8XeHjiSXoV+nIw="/>
    </rdf:RDF>
  </metadata>
  <g transform="translate(0.000000,800.000000) scale(0.100000,-0.100000)" fill="#000000" stroke="none">
    <path d="M3675 6263 c-175 -23 -436 -83 -595 -138 -143 -49 -386 -172 -492 -248 -134 -96 -259 -208 -336 -299 -154 -183 -335 -488 -392 -658 -39 -116 -90 -312 -111 -425 -26 -139 -36 -414 -20 -540 46 -348 228 -845 415 -1128 61 -93 190 -242 279 -323 70 -65 211 -157 296 -196 252 -114 539 -210 750 -251 155 -29 523 -31 699 -3 296 46 563 137 769 261 232 141 420 281 517 386 343 371 491 694 556 1218 24 196 25 331 5 505 -22 187 -50 312 -106 481 -169 503 -476 854 -955 1094 -170 84 -291 128 -540 191 -277 71 -339 80 -538 79 -94 -1 -184 -4 -201 -6z m560 -316 c383 -90 552 -149 728 -254 285 -172 469 -367 610 -649 70 -140 119 -288 159 -479 29 -139 32 -165 32 -360 1 -199 -1 -218 -32 -373 -79 -391 -171 -608 -349 -821 -2 -3 -13 5 -26 17 -34 32 -172 99 -261 127 -109 35 -302 65 -417 65 -53 0 -144 3 -202 7 l-107 6 0 174 0 173 50 0 c127 0 266 103 308 229 28 82 28 164 1 244 -22 66 -22 73 5 232 9 49 27 182 42 295 29 228 27 325 -7 459 -38 149 -89 219 -195 268 -61 28 -195 47 -241 34 -31 -9 -31 -9 -52 47 -54 148 -203 214 -436 191 -235 -22 -600 -139 -815 -261 -175 -100 -415 -301 -484 -404 -36 -55 -44 -128 -21 -179 42 -88 165 -137 349 -138 l118 0 -6 -136 c-15 -336 -19 -762 -7 -838 24 -152 95 -251 225 -312 63 -30 227 -81 259 -81 30 0 18 -19 -15 -24 -18 -3 -89 -7 -158 -9 -99 -4 -142 -10 -205 -31 -163 -52 -400 -193 -520 -308 l-59 -58 -29 28 c-67 63 -185 256 -253 413 -222 516 -272 882 -178 1307 64 288 154 490 312 702 266 358 566 545 1084 676 236 59 266 63 463 60 165 -3 193 -7 330 -39z m-230 -618 c21 -6 54 -26 71 -43 27 -27 34 -43 40 -96 4 -40 14 -70 25 -81 29 -29 85 -34 165 -14 91 23 144 16 193 -23 47 -38 77 -98 98 -196 15 -69 15 -80 3 -84 -27 -9 -65 -58 -145 -188 l-80 -129 -5 120 c-8 182 -45 235 -164 235 -54 0 -215 -34 -335 -70 -35 -11 -65 -20 -67 -20 -3 0 2 13 11 30 21 40 19 82 -5 112 -25 32 -63 40 -137 27 -151 -25 -775 -99 -833 -98 -102 1 -108 7 -58 55 193 183 412 319 593 367 33 9 119 32 190 51 72 20 141 36 155 36 l25 -1 -30 -22 c-45 -33 -222 -183 -290 -246 -89 -81 -110 -141 -50 -141 34 0 57 12 135 74 168 133 320 290 320 333 0 22 4 23 68 23 37 0 85 -5 107 -11z m-395 -669 c0 -88 45 -126 149 -124 62 1 273 44 386 78 27 8 51 13 53 11 3 -3 0 -118 -7 -257 -21 -452 -74 -653 -208 -785 -136 -134 -367 -176 -617 -113 -119 30 -155 54 -191 124 l-29 60 -1 210 c0 116 4 333 9 483 l9 272 41 6 c125 19 280 47 332 59 32 8 62 15 67 15 4 1 7 -17 7 -39z m965 -251 c-14 -101 -27 -185 -29 -187 -2 -2 -23 2 -47 8 -24 7 -62 9 -87 5 l-45 -7 19 31 c10 16 51 76 89 133 39 57 81 127 94 155 14 29 26 51 28 49 3 -2 -7 -86 -22 -187z m-108 -401 c19 -16 53 -92 53 -120 0 -58 -80 -113 -145 -100 l-28 5 6 86 c3 47 11 101 18 119 11 32 13 33 48 27 20 -4 41 -11 48 -17z m-298 -589 c-32 -306 -54 -388 -120 -448 -38 -35 -114 -56 -167 -46 -58 10 -120 51 -141 93 -10 20 -27 66 -36 102 -10 36 -22 70 -27 77 -14 17 -1 33 26 33 43 0 181 40 243 70 78 39 154 107 195 175 18 30 34 53 35 51 2 -1 -2 -50 -8 -107z m293 -393 c51 -8 143 -19 203 -25 198 -20 394 -69 513 -128 28 -14 52 -31 52 -37 -1 -15 -131 -109 -280 -202 -232 -144 -454 -238 -673 -283 -198 -42 -241 -46 -472 -46 -201 0 -244 3 -340 23 -257 53 -540 161 -728 276 -37 22 -66 46 -65 52 11 41 270 229 392 284 85 39 127 47 409 83 14 1 25 -15 48 -74 70 -180 211 -266 423 -257 118 5 175 28 258 106 49 46 118 162 118 200 0 21 18 42 36 42 7 0 55 -6 106 -14z"/>
    <path d="M3365 5202 c-42 -26 -239 -205 -270 -246 -69 -91 16 -146 117 -73 80 57 261 280 235 291 -7 2 -5 5 4 5 24 1 43 27 28 37 -7 4 -15 2 -17 -4 -5 -15 -42 -16 -42 -2 0 15 -22 12 -55 -8z"/>
    <path d="M3832 5045 c-61 -46 -83 -78 -65 -96 25 -25 110 37 144 104 19 36 19 37 0 37 -10 0 -46 -20 -79 -45z"/>
    <path d="M3333 4298 c-45 -49 -127 -388 -108 -448 9 -28 56 -48 138 -56 66 -7 66 -7 102 29 24 24 35 44 35 64 0 39 -37 73 -78 73 -40 0 -40 1 -2 147 17 63 30 128 30 144 0 62 -76 92 -117 47z"/>
  </g>
</svg>